Genre:Drama | Mystery | Sci-Fi | Thriller
Language:English 
http://www.imdb.com/title/tt1375666/

Source:720p.BluRay.x264-CROSSBOW

General
Complete name :Inception.2010.BRRip.720p.H264.Feel-Free
Format : MPEG-4
Format profile : Base Media
Codec ID : mp42
File size : 2.22 GiB
Duration : 2h 28mn
Overall bit rate : 2 145 Kbps
Video #1
Codec ID : avc1
Codec ID/Info : Advanced Video Coding
Duration : 2h 28mn
Bit rate mode : Variable
Bit rate : 1 585 Kbps
Width : 1 280 pixels
Height : 536 pixels
Display aspect ratio : 2.35:1
Frame rate mode : Constant
Frame rate : 23.976 fps
Resolution : 24 bits
Colorimetry : 4:2:0
Scan type : Progressive
Bits/(Pixel*Frame) : 0.096
Stream size : 1.64 GiB (74%)
Audio #2
ID : 2
Format : AAC
Format/Info : Advanced Audio Codec
Format version : Version 4
Format profile : LC
Format settings, SBR : No
Codec ID : 40
Duration : 2h 28mn
Bit rate mode : Constant
Bit rate : 556 Kbps
Nominal bit rate : 576 Kbps
Channel(s) : 6 channels
Channel positions : Front: L C R, Rear: L R, LFE
Sampling rate : 48.0 KHz
Resolution : 16 bits
Stream size : 589 MiB (26%)

Plot:
In a world where technology exists to enter the human mind through dream invasion, a highly skilled thief is given a final chance at redemption which involves executing his toughest job till date, Inception 
http://www.rapidhdd.com/images/997574vlcsnap-2010-11-16-07h15m59s170.png 
http://www.rapidhdd.com/images/325464vlcsnap-2010-11-16-06h56m45s164.png 
http://www.rapidhdd.com/images/351570vlcsnap-2010-11-16-07h15m51s91.png 
http://www.rapidhdd.com/images/102194vlcsnap-2010-11-16-07h04m19s97.png 
http://www.rapidhdd.com/images/716157vlcsnap-2010-11-16-06h52m03s154.png 
http://www.youtube.com/watch?v=ig1GrJI5dSg